# File created by Blade
# Date/Time:  Thu Jan 22 19:34:15 2015
# Frame Rate: 120.000 fps
#------------------------------------------------------
:FULLY-SPECIFIED
:DEGREES
1394
root -10.672942 31.810491 -5.919533 15.046305 -21.502641 12.782653
RightUpLeg -40.074183 -14.352801 -15.491597
RightLeg 36.619626 -0.000000 -0.000000
RightFoot -20.850262 -6.730881 -0.793464
RightToeBase 8.880749 -0.000000 -0.000000
LeftUpLeg -38.529715 9.790286 15.325336
LeftLeg 57.808138 -0.000000 -0.000000
LeftFoot -4.569883 -2.278717 -26.279053
LeftToeBase -4.052816 -0.000000 0.000000
Spine -0.291088 -0.310859 -4.780325
RightShoulder -12.108555 -9.576601 -20.413709
RightArm 22.816869 16.812975 66.265782
RightForeArm -8.564293 0.000000 50.758947
RightHand 17.322981 -0.000000 -13.582982
RightHandThumb1 -24.326973 -0.000000 -32.862282
LeftShoulder -20.740092 6.208996 15.660067
LeftArm 9.360622 -1.069147 -87.508096
LeftForeArm 18.179943 -0.000000 29.366959
LeftHand -2.879498 -0.000000 3.902589
LeftHandThumb1 -26.253704 0.000000 33.147579
Head -46.787327 8.781560 -19.942892
1395
root -10.706142 31.919164 -5.859483 14.803189 -20.948834 12.568854
RightUpLeg -38.679735 -14.604966 -15.302930
RightLeg 35.150566 -0.000000 -0.000000
RightFoot -20.405584 -7.029753 -0.794845
RightToeBase 9.318268 -0.000000 -0.000000
LeftUpLeg -39.003373 9.810906 14.266973
LeftLeg 58.632354 -0.000000 -0.000000
LeftFoot -4.775202 -4.118588 -27.894446
LeftToeBase -5.137231 -0.000000 0.000000
Spine -0.346161 -0.265615 -4.750012
RightShoulder -12.400327 -9.946977 -20.259972
RightArm 22.557346 16.891422 66.581814
RightForeArm -8.851178 0.000000 50.986270
RightHand 17.351377 0.000000 -13.291938
RightHandThumb1 -24.326973 -0.000000 -32.862282
LeftShoulder -20.945363 6.420165 15.362089
LeftArm 9.248329 -1.421373 -87.196527
LeftForeArm 17.959552 -0.000000 29.018423
LeftHand -2.927651 -0.000000 4.145179
LeftHandThumb1 -26.253704 0.000000 33.147579
Head -46.357905 8.486325 -19.864847
1396
root -10.747035 32.016375 -5.797588 14.607182 -20.389350 12.245658
RightUpLeg -37.287838 -14.784027 -15.010784
RightLeg 33.672570 -0.000000 -0.000000
RightFoot -19.991218 -7.383478 -0.857073
RightToeBase 9.386880 -0.000000 -0.000000
LeftUpLeg -39.345374 9.810778 13.353434
LeftLeg 59.250793 -0.000000 -0.000000
LeftFoot -4.715717 -5.836570 -30.275018
LeftToeBase -6.411963 -0.000000 0.000000
Spine -0.431646 -0.197955 -4.616535
RightShoulder -12.650000 -10.265412 -20.105829
RightArm 22.091031 16.879435 66.753546
RightForeArm -8.995603 -0.000000 51.367046
RightHand 17.075325 -0.000000 -13.188038
RightHandThumb1 -24.326973 -0.000000 -32.862282
LeftShoulder -21.118302 6.615282 15.087028
LeftArm 9.132614 -1.726864 -86.847021
LeftForeArm 17.832030 -0.000000 28.637066
LeftHand -2.930533 -0.000000 4.230790
LeftHandThumb1 -26.253704 0.000000 33.147579
Head -45.895554 8.186517 -19.782117
1397
root -10.778718 32.104907 -5.734045 14.372207 -19.893606 11.948628
RightUpLeg -35.929874 -14.831079 -14.805578
RightLeg 32.283315 -0.000000 -0.000000
RightFoot -19.558949 -7.711478 -1.040049
RightToeBase 9.498075 -0.000000 -0.000000
LeftUpLeg -39.562991 9.859954 12.402484
LeftLeg 59.734758 -0.000000 -0.000000
LeftFoot -4.340513 -7.393243 -32.756453
LeftToeBase -7.359405 -0.000000 0.000000
Spine -0.479244 -0.126672 -4.536472
RightShoulder -12.914271 -10.602535 -19.914828
RightArm 21.729050 16.865520 66.917349
RightForeArm -9.119059 0.000000 51.655611
RightHand 17.043515 -0.000000 -12.942449
RightHandThumb1 -24.326973 -0.000000 -32.862282
LeftShoulder -21.281296 6.889955 14.860244
LeftArm 9.058520 -1.953262 -86.541942
LeftForeArm 17.563237 -0.000000 28.286882
LeftHand -2.884064 -0.000000 4.536215
LeftHandThumb1 -26.253704 0.000000 33.147579
Head -45.473311 7.953662 -19.690461
1398
root -10.803279 32.183899 -5.668452 14.088901 -19.432007 11.639103
RightUpLeg -34.573299 -14.835949 -14.609573
RightLeg 30.949310 -0.000000 -0.000000
RightFoot -19.132512 -8.075031 -1.235015
RightToeBase 9.645009 -0.000000 -0.000000
LeftUpLeg -39.642002 9.954167 11.457656
LeftLeg 60.084525 -0.000000 -0.000000
LeftFoot -3.819953 -8.918802 -34.778474
LeftToeBase -7.360773 -0.000000 0.000000
Spine -0.449606 -0.040786 -4.436249
RightShoulder -13.111267 -10.875662 -19.762606
RightArm 21.268773 16.891331 67.069898
RightForeArm -9.225060 -0.000000 51.968363
RightHand 16.976973 -0.000000 -12.814511
RightHandThumb1 -24.326973 -0.000000 -32.862282
LeftShoulder -21.449750 7.123831 14.660851
LeftArm 8.977242 -2.293716 -86.284828
LeftForeArm 17.477225 -0.000000 27.961414
LeftHand -2.910294 0.000000 4.506306
LeftHandThumb1 -26.253704 0.000000 33.147579
Head -45.082556 7.694855 -19.571287
1399
root -10.822337 32.250020 -5.601938 13.824893 -19.023500 11.368660
RightUpLeg -33.340561 -14.787701 -14.467091
RightLeg 29.754114 -0.000000 -0.000000
RightFoot -18.760625 -8.492915 -1.507108
RightToeBase 9.486100 -0.000000 -0.000000
LeftUpLeg -39.659137 10.057690 10.498941
LeftLeg 60.322431 -0.000000 -0.000000
LeftFoot -2.991253 -10.502845 -36.709948
LeftToeBase -6.664308 -0.000000 0.000000
Spine -0.483711 0.053388 -4.413598
RightShoulder -13.351192 -11.155577 -19.612184
RightArm 20.863963 16.798964 67.210662
RightForeArm -9.287038 -0.000000 52.184263
RightHand 16.913978 -0.000000 -12.663622
RightHandThumb1 -24.326973 -0.000000 -32.862282
LeftShoulder -21.601690 7.447154 14.542906
LeftArm 8.978715 -2.481954 -86.047786
LeftForeArm 17.220997 -0.000000 27.591012
LeftHand -2.990821 -0.000000 4.791075
LeftHandThumb1 -26.253704 0.000000 33.147579
Head -44.629425 7.509368 -19.396940
1400
root -10.848778 32.307977 -5.545997 13.681685 -18.688022 10.938888
RightUpLeg -32.133088 -14.262691 -14.292391
RightLeg 28.439163 -0.000000 -0.000000
RightFoot -18.304657 -9.217117 -1.600391
RightToeBase 9.947540 -0.000000 -0.000000
LeftUpLeg -39.660505 10.285267 9.743590
LeftLeg 60.468180 -0.000000 -0.000000
LeftFoot -2.039375 -11.949709 -38.491555
LeftToeBase -6.909114 -0.000000 0.000000
Spine -0.573336 0.210826 -4.279283
RightShoulder -13.620588 -11.566356 -19.339887
RightArm 20.628108 16.706196 67.251391
RightForeArm -9.267842 -0.000000 52.390947
RightHand 16.887801 -0.000000 -12.544380
RightHandThumb1 -24.326973 -0.000000 -32.862282
LeftShoulder -21.717952 7.638284 14.523958
LeftArm 8.783301 -2.700889 -85.847310
LeftForeArm 16.995269 -0.000000 27.351783
LeftHand -3.192234 -0.000000 5.216853
LeftHandThumb1 -26.253704 0.000000 33.147579
Head -44.254896 7.372645 -19.176840
1401
root -10.864379 32.353606 -5.486952 13.496625 -18.410257 10.548519
RightUpLeg -31.054476 -13.832748 -14.126214
RightLeg 27.363384 -0.000000 -0.000000
RightFoot -17.922893 -9.843731 -1.723931
RightToeBase 10.377315 -0.000000 -0.000000
LeftUpLeg -39.553438 10.439063 9.003381
LeftLeg 60.504531 -0.000000 -0.000000
LeftFoot -0.857926 -13.157424 -40.161516
LeftToeBase -7.582824 -0.000000 0.000000
Spine -0.637613 0.326559 -4.187037
RightShoulder -13.818949 -11.870414 -19.180416
RightArm 20.352142 16.646824 67.442107
RightForeArm -9.324412 -0.000000 52.527722
RightHand 16.857728 -0.000000 -12.422892
RightHandThumb1 -24.326973 -0.000000 -32.862282
LeftShoulder -21.828774 7.808268 14.585081
LeftArm 8.517914 -2.962970 -85.702845
LeftForeArm 16.666941 0.000000 27.094961
LeftHand -3.157649 -0.000000 5.492454
LeftHandThumb1 -26.253704 0.000000 33.147579
Head -43.883204 7.286559 -18.942064
1402
root -10.877733 32.388323 -5.427369 13.307566 -18.185283 10.117162
RightUpLeg -30.012115 -13.347171 -13.932611
RightLeg 26.340798 -0.000000 -0.000000
RightFoot -17.553715 -10.404957 -1.948111
RightToeBase 10.249096 -0.000000 -0.000000
LeftUpLeg -39.356302 10.596915 8.351990
LeftLeg 60.462627 -0.000000 -0.000000
LeftFoot 0.108064 -14.232182 -41.446305
LeftToeBase -7.266862 -0.000000 0.000000
Spine -0.682004 0.494329 -4.070456
RightShoulder -14.033925 -12.134854 -18.998592
RightArm 20.026649 16.544805 67.562068
RightForeArm -9.405052 -0.000000 52.691810
RightHand 16.828171 -0.000000 -12.269100
RightHandThumb1 -24.326973 -0.000000 -32.862282
LeftShoulder -21.922382 8.019579 14.644726
LeftArm 8.293906 -3.167512 -85.553914
LeftForeArm 16.415058 -0.000000 26.928993
LeftHand -3.266560 0.000000 5.691263
LeftHandThumb1 -26.253704 0.000000 33.147579
Head -43.518007 7.230806 -18.669840
1403
root -10.884858 32.414244 -5.364514 13.105493 -17.994906 9.693448
RightUpLeg -29.044628 -12.915253 -13.737425
RightLeg 25.457666 -0.000000 -0.000000
RightFoot -17.247612 -10.889188 -2.110656
RightToeBase 10.417811 -0.000000 -0.000000
LeftUpLeg -39.050082 10.667365 7.754446
LeftLeg 60.294280 -0.000000 -0.000000
LeftFoot 0.981701 -15.132509 -42.503275
LeftToeBase -8.606290 -0.000000 0.000000
Spine -0.727975 0.636278 -3.960792
RightShoulder -14.227976 -12.438588 -18.806095
RightArm 19.774991 16.364939 67.606717
RightForeArm -9.430495 -0.000000 52.779708
RightHand 16.885863 -0.000000 -12.307052
RightHandThumb1 -24.326973 -0.000000 -32.862282
LeftShoulder -22.006144 8.285422 14.697806
LeftArm 8.105683 -3.407601 -85.420710
LeftForeArm 16.123129 -0.000000 26.802106
LeftHand -3.352774 -0.000000 5.751966
LeftHandThumb1 -26.253704 0.000000 33.147579
Head -43.143157 7.197392 -18.392504
